# xmcd
#
# Track frame offsets: 
#        150
#        18974
#        58686
#
# Disc length: 1325 seconds
#
# Revision: 0
# Processed by: cddbd v1.5.2PL0 Copyright (c) Steve Scherf et al.
# Submitted via: ExactAudioCopy v1.0b3
#
DISCID=1c052b03
DTITLE=Stoneprophet - Timetraveller
DYEAR=1900
DGENRE=
TTITLE0=Timetraveller (Radio Cut)
TTITLE1=Timetraveller (Fischer and Miehtig Mix)
TTITLE2=Timetraveller (Mic-E's Rework)
EXTD=
EXTT0=
EXTT1=
EXTT2=
PLAYORDER=
